<svg xmlns="http://www.w3.org/2000/svg" width="407.794" height="69.383" viewBox="0 0 407.794 69.383">
<defs>
<style>
.a{fill:#2f7e74;}.b{fill:#606060;opacity:0.5;}.c{fill:#3d8f85;}
.e,.f{fill:#fff;}.f{font-size:17px;font-family:OpenSans-Bold, Open Sans;font-weight:700;letter-spacing:-0.005em;}
</style>
</defs>
<g transform="translate(-35.441 -150.072)">
<g transform="translate(35.441 149.617)">
<g transform="translate(0 0.455)">
<path class="a" d="M35.441,213.714h93.077V161.179H35.441l13.3,26.268Z" transform="translate(-35.441 -144.34)"/>
<path class="b" d="M111.479,201.884,69.8,185.038h41.674Z" transform="translate(-18.402 -132.509)"/>
<path class="a" d="M302.188,213.72H209.11V161.184h93.077l-13.3,26.268Z" transform="translate(105.607 -144.337)"/>
<rect class="c" width="304.98" height="52.536" transform="translate(51.411)"/>
<path class="b" d="M209.11,201.89l41.674-16.847H209.11Z" transform="translate(105.607 -132.507)"/>
</g>
</g>
</g>
<g transform="translate(-888.912 -281)">
<g transform="translate(888.912 285.502)">
<path class="e" d="M83.595,163.323l1.553,4.78h5.026l-4.066,2.954,1.553,4.78-4.066-2.954-4.066,2.954,1.553-4.78L77.016,168.1h5.026Z" transform="translate(-5 -149)"/>
<path class="e" d="M225.221,163.323l1.553,4.78H231.8l-4.066,2.954,1.553,4.78-4.066-2.954-4.066,2.954,1.553-4.78-4.066-2.954h5.026Z" transform="translate(105 -149)"/>
</g>
<text class="f" transform="translate(907 299)"><tspan x="75" y="13">BEST PRICE GUARANTEED</tspan></text>
</g>
</svg>